<svg width="18" height="13" fill="none" xmlns="http://www.w3.org/2000/svg"><path d="M15.972 1.051c.955 1.052 1.528 2.199 1.528 4.11 0 3.346-2.388 6.31-5.73 7.839l-.86-1.243c3.152-1.72 3.82-3.919 4.011-5.353-.477.287-1.146.383-1.814.287-1.72-.191-3.056-1.53-3.056-3.345 0-.86.382-1.721.955-2.39C11.674.286 12.438 0 13.393 0c1.05 0 2.006.478 2.579 1.051zm-9.55 0c.954 1.052 1.527 2.199 1.527 4.11 0 3.346-2.387 6.31-5.73 7.839l-.86-1.243c3.152-1.72 3.82-3.919 4.012-5.353-.478.287-1.146.383-1.815.287C1.837 6.5.5 5.066.5 3.346c0-.86.382-1.721.955-2.39C2.124.286 2.888 0 3.843 0c1.05 0 2.005.478 2.578 1.051z" fill="#fff"/></svg>