<svg width="193" height="193" fill="none" xmlns="http://www.w3.org/2000/svg"><circle cx="96.5" cy="96.5" r="96.5" fill="#490083" fill-opacity=".05"/><path d="M72.753 185a1.317 1.317 0 01-.257-.04l-.141-.041C32.62 173.944 5 137.617 5 96.532a92.208 92.208 0 017.086-35.389 92.02 92.02 0 0120.12-29.933 1.184 1.184 0 011.986.364 1.191 1.191 0 01-.321 1.325 89.61 89.61 0 00-19.602 29.158 89.793 89.793 0 00-6.9 34.475c0 40.016 26.908 75.404 65.436 86.061a1.33 1.33 0 01.973 1.496 1.105 1.105 0 01-1.026.911zm87.317-23.024a1.15 1.15 0 01-.84-.355 1.177 1.177 0 01-.347-.839 1.182 1.182 0 01.347-.838 89.66 89.66 0 0019.518-29.117 89.84 89.84 0 006.879-34.395c0-40.017-26.908-75.404-65.437-86.065a1.258 1.258 0 01-.9-1.48 1.101 1.101 0 01.933-.877c.15-.02.304-.01.45.03l-.314 1.146.447-1.11c39.566 10.94 67.19 47.275 67.19 88.355a92.19 92.19 0 01-7.06 35.31 92.017 92.017 0 01-20.037 29.888 1.21 1.21 0 01-.829.347z" fill="#515151"/><path d="M120.948 108.007l-7.646-4.118c-1.861-1.002-3.309-.277-4.912 1.927-3.52 4.84-5.227 5.796-9.546 3.386-4.03-2.249-6.917-4.919-10.537-8.537-3.62-3.617-6.293-6.5-8.543-10.528-2.412-4.316-1.455-6.022 3.389-9.54 2.205-1.601 2.93-3.047 1.928-4.908l-4.121-7.64c-1.684-3.248-4.073-3.62-7.604-2.425-4.872 1.647-9.586 8.676-9.347 12.013.698 9.748 5.583 21.46 15.749 31.618 10.164 10.157 21.886 15.038 31.642 15.736 3.339.239 10.328-4.518 11.976-9.386 1.195-3.529.823-5.915-2.428-7.598z" fill="#DE0A89"/><path d="M97.836 79a2.86 2.86 0 00.022 5.718c.027-.002.054 0 .078 0 1.701 0 3.295.657 4.492 1.854a6.306 6.306 0 011.854 4.546A2.859 2.859 0 00107.117 94h.025A2.86 2.86 0 00110 91.164a11.982 11.982 0 00-3.529-8.635c-2.302-2.302-5.415-3.51-8.635-3.529z" fill="#DE0A89"/><path d="M114.956 74.045A23.981 23.981 0 0097.856 67a2.866 2.866 0 00.01 5.734c.018-.003.052-.001.079 0a18.2 18.2 0 0112.957 5.364 18.202 18.202 0 015.365 13.025A2.866 2.866 0 00119.123 94h.01A2.867 2.867 0 00122 91.144c.022-6.463-2.479-12.536-7.044-17.1z" fill="#DE0A89"/></svg>