<svg width="193" height="193" fill="none" xmlns="http://www.w3.org/2000/svg"><circle cx="96.5" cy="96.5" r="96.5" fill="#490083" fill-opacity=".05"/><path d="M72.753 185a1.317 1.317 0 01-.257-.04l-.141-.041C32.62 173.944 5 137.62 5 96.539a92.196 92.196 0 017.086-35.388 92.015 92.015 0 0120.12-29.93 1.184 1.184 0 011.986.363 1.192 1.192 0 01-.321 1.326 89.603 89.603 0 00-19.602 29.156 89.78 89.78 0 00-6.9 34.472c0 40.014 26.908 75.398 65.436 86.055a1.33 1.33 0 01.973 1.496 1.105 1.105 0 01-1.026.911zm87.317-23.023a1.15 1.15 0 01-.84-.354 1.187 1.187 0 010-1.678 89.648 89.648 0 0019.518-29.114 89.83 89.83 0 006.879-34.393c0-40.014-26.908-75.399-65.437-86.06a1.258 1.258 0 01-.9-1.479 1.1 1.1 0 01.933-.876c.15-.021.304-.011.45.03l-.314 1.144.447-1.108c39.566 10.938 67.19 47.27 67.19 88.349a92.175 92.175 0 01-7.06 35.306 92.012 92.012 0 01-20.037 29.887 1.204 1.204 0 01-.829.346z" fill="#515151"/><path d="M97.5 99a3.5 3.5 0 100-7 3.5 3.5 0 000 7z" fill="#DE0A89"/><path d="M120.578 74.608c-6.523-6.828-15.765-10.293-25.373-9.496C80.581 66.322 68.799 77.46 67.189 91.6c-.971 8.533 1.83 17.066 7.686 23.41 5.881 6.373 14.317 10.018 23.13 9.991 1.3-.004 2.568-.691 3.127-1.83 1.285-2.618-.624-5.189-3.166-5.228-3.564-.056-7.138-.458-10.284-2.084-9.547-4.931-14.35-13.928-13.264-23.484 1.21-10.624 10.412-19.32 21.405-20.228 7.345-.607 14.432 2.038 19.422 7.262 2.891 3.026 4.483 7.097 4.482 11.464v6.812c0 1.486-.898 2.921-2.356 3.376-2.419.756-4.658-.985-4.658-3.224V84.584c0-1.652-1.084-3.21-2.739-3.596-1.655-.386-3.171.33-3.962 1.538-3.284-2.242-7.476-3.31-11.938-2.518-6.299 1.118-11.371 6.02-12.522 12.133-1.82 9.661 5.816 18.112 15.446 18.112 4.603 0 8.736-1.943 11.613-5.013 2.332 2.257 5.719 3.487 9.372 2.922 4.996-.774 9.017-5.788 9.017-10.698v-6.59c.001-6.153-2.279-11.93-6.422-16.266zM99.29 102.9c-6.415 1.651-12.134-3.9-10.43-10.126.748-2.736 3.027-4.947 5.845-5.672 6.416-1.652 12.133 3.899 10.43 10.125-.748 2.735-3.027 4.946-5.845 5.672z" fill="#DE0A89"/></svg>