<svg width="193" height="193" fill="none" xmlns="http://www.w3.org/2000/svg"><circle cx="96.5" cy="96.5" r="96.5" fill="#490083" fill-opacity=".05"/><g clip-path="url(#clip0_812_8)"><path d="M72.753 185a1.317 1.317 0 01-.257-.04l-.141-.041C32.62 173.944 5 137.62 5 96.539a92.196 92.196 0 017.086-35.388 92.015 92.015 0 0120.12-29.93 1.184 1.184 0 011.986.363 1.192 1.192 0 01-.321 1.326 89.603 89.603 0 00-19.602 29.156 89.78 89.78 0 00-6.9 34.472c0 40.014 26.908 75.398 65.436 86.055a1.33 1.33 0 01.973 1.496 1.105 1.105 0 01-1.026.911zm87.317-23.023a1.15 1.15 0 01-.84-.354 1.187 1.187 0 010-1.678 89.648 89.648 0 0019.518-29.114 89.83 89.83 0 006.879-34.393c0-40.014-26.908-75.399-65.437-86.06a1.258 1.258 0 01-.9-1.479 1.1 1.1 0 01.933-.876c.15-.021.304-.011.45.03l-.314 1.144.447-1.108c39.566 10.938 67.19 47.27 67.19 88.349a92.175 92.175 0 01-7.06 35.306 92.012 92.012 0 01-20.037 29.887 1.204 1.204 0 01-.829.346z" fill="#515151"/></g><path d="M94.908 65.11c-10.103 1.06-17.719 10.65-16.839 20.637 1.153 13.086 13.348 22.843 17.526 25.824.828.59 1.94.57 2.744-.05C102.678 108.177 116 96.843 116 83.758c0-11.037-9.66-19.848-21.092-18.648zM96.99 91.2c-4.167 0-7.544-3.332-7.544-7.443s3.378-7.444 7.544-7.444c4.166 0 7.543 3.333 7.543 7.444 0 4.11-3.377 7.443-7.543 7.443z" fill="#DE0A89"/><path d="M119.917 121.746l-3.068-14a3.48 3.48 0 00-3.394-2.746h-.983c-2.747 3.692-6.459 7.624-11.538 11.618A6.474 6.474 0 0196.952 118a6.411 6.411 0 01-3.792-1.237c-2.868-2.088-7.832-6.155-11.984-11.763h-.72a3.482 3.482 0 00-3.398 2.767l-2.98 14c-.463 2.178 1.186 4.233 3.4 4.233h39.045c2.221 0 3.873-2.07 3.394-4.254z" fill="#DE0A89"/><defs><clipPath id="clip0_812_8"><path fill="#fff" transform="translate(5 8)" d="M0 0h183v177H0z"/></clipPath></defs></svg>