<svg width="96" height="102" fill="none" xmlns="http://www.w3.org/2000/svg"><g clip-path="url(#clip0_9_70)"><path d="M17.99 19.848c5.288-1.197 10.416-3.004 15.73-4.105a88.521 88.521 0 0115.854-1.858 83.62 83.62 0 0115.45 1.034c4.027.675 8.137 1.837 11.434 3.533.468.241.931.491 1.386.757l.434.258.418.27c.427.29.845.59 1.255.9l.3.238c-.089-.063.46.396.544.472.334.307.653.629.972.95l.143.14.12.154c.128.155.256.306.387.466a10.587 10.587 0 011.468 2.29c2.184 4.318 1.686 9.35.331 13.875-1.422 4.756-3.798 9.274-6.328 13.523a86.776 86.776 0 01-8.552 11.915 85.262 85.262 0 01-11.904 11.53 86.456 86.456 0 01-8.403 5.816c.297-.749.59-1.5.9-2.246l2.667-6.703c.474-1.184.947-2.37 1.42-3.56.479-1.203 1.096-2.39 1.146-3.709.064-1.678-3.416-4.643-4.895-3.075-.824.869-1.131 2.092-1.553 3.192-.423 1.1-.869 2.248-1.304 3.373a6159.83 6159.83 0 01-2.685 6.961c-1.763 4.561-3.51 9.15-5.262 13.727-.369.963.266 1.853.947 2.513.68.66 2.137 1.716 3.196 1.455 1.426-.352 2.817-.845 4.262-1.214l4.572-1.145 8.924-2.24c5.882-1.475 11.863-2.804 17.641-4.683.801-.263.014-1.449-.26-1.752-.535-.592-1.552-1.349-2.414-1.214-6.073 1.005-12.078 2.524-18.075 3.9l-4.567 1.052c7.098-4.255 13.577-9.816 19.094-15.853 7.013-7.673 13.06-16.801 16.561-26.647 1.81-5.087 2.53-10.69.597-15.845-1.717-4.574-5.082-8.319-9.068-11.057-8.548-5.872-19.16-7.59-29.318-7.884a80.03 80.03 0 00-18.574 1.686c-5.89 1.22-12.226 2.82-17.134 6.445-1.091.8 1.298 2.556 2.144 2.365z" fill="#515151"/></g><defs><clipPath id="clip0_9_70"><path fill="#fff" transform="rotate(12.901 8.122 86.8)" d="M0 0h78v86H0z"/></clipPath></defs></svg>