<svg width="20" height="20" fill="none" xmlns="http://www.w3.org/2000/svg"><path d="M18.333 3.333c-.65.385-1.954.911-2.72 1.063l-.063.019a3.75 3.75 0 00-6.383 2.667c0 .11-.01.31 0 .417-2.795 0-4.921-1.463-6.446-3.333-.166.417-.239 1.075-.239 1.693 0 1.168.913 2.314 2.334 3.025-.262.068-.55.116-.85.116-.485 0-.997-.127-1.466-.514v.042c0 1.632 1.731 2.743 3.271 3.052-.312.184-.942.203-1.25.203-.216 0-.983-.1-1.188-.138.428 1.338 1.973 2.09 3.446 2.116-1.152.903-1.95 1.238-4.31 1.238h-.802c1.49.955 3.387 1.668 5.289 1.668 6.191 0 9.71-4.72 9.71-9.168a21 21 0 00-.004-.372c0-.015.005-.03.005-.044 0-.023-.007-.045-.007-.067a15.32 15.32 0 00-.008-.274 6.847 6.847 0 001.681-1.743 6.725 6.725 0 01-1.933.53c.695-.416 1.682-1.41 1.933-2.196z" fill="#fff"/></svg>