<svg width="46" height="47" fill="none" xmlns="http://www.w3.org/2000/svg"><path d="M42.167 32.93v5.75a3.831 3.831 0 01-4.179 3.833 37.93 37.93 0 01-16.54-5.884 37.376 37.376 0 01-11.5-11.5A37.93 37.93 0 014.063 8.512a3.833 3.833 0 013.815-4.179h5.75A3.833 3.833 0 0117.46 7.63c.243 1.84.693 3.647 1.342 5.386a3.833 3.833 0 01-.863 4.044l-2.434 2.434a30.667 30.667 0 0011.5 11.5l2.434-2.434a3.833 3.833 0 014.044-.862 24.61 24.61 0 005.386 1.341 3.833 3.833 0 013.297 3.891zM26.93 4.333a17.25 17.25 0 0115.333 15.219M26.93 12a9.583 9.583 0 017.57 7.667" stroke="#490083" stroke-width="2" stroke-linecap="round" stroke-linejoin="round"/></svg>