<svg width="163" height="60" fill="none" xmlns="http://www.w3.org/2000/svg"><path d="M66.816 33V10.6h10.08c1.43 0 2.72.31 3.872.928 1.173.619 2.09 1.472 2.752 2.56.661 1.067.992 2.283.992 3.648 0 1.408-.33 2.677-.992 3.808a7.145 7.145 0 01-2.72 2.624c-1.152.64-2.453.96-3.904.96H72V33h-5.184zm12.416 0l-5.696-10.112 5.568-.8L85.44 33h-6.208zM72 20.968h4.416c.555 0 1.035-.117 1.44-.352.427-.256.747-.608.96-1.056.235-.448.352-.96.352-1.536 0-.576-.128-1.077-.384-1.504a2.49 2.49 0 00-1.12-1.024c-.47-.235-1.045-.352-1.728-.352H72v5.824zM95.252 33.32c-1.878 0-3.51-.373-4.896-1.12-1.387-.768-2.464-1.803-3.232-3.104-.768-1.323-1.152-2.827-1.152-4.512 0-1.301.213-2.496.64-3.584a8.364 8.364 0 011.792-2.816 7.721 7.721 0 012.72-1.856c1.066-.448 2.23-.672 3.488-.672 1.194 0 2.282.213 3.264.64a7.635 7.635 0 012.592 1.792 7.86 7.86 0 011.664 2.72c.384 1.045.554 2.187.512 3.424l-.032 1.376H89.076l-.736-2.88h10.112l-.544.608v-.64a2.685 2.685 0 00-.512-1.408 2.804 2.804 0 00-1.12-.992c-.47-.235-1.003-.352-1.6-.352-.832 0-1.547.17-2.144.512-.576.32-1.014.8-1.312 1.44-.299.619-.448 1.387-.448 2.304 0 .939.192 1.76.576 2.464.405.683.981 1.216 1.728 1.6.768.384 1.674.576 2.72.576.725 0 1.365-.107 1.92-.32.576-.213 1.194-.576 1.856-1.088l2.4 3.392a9.621 9.621 0 01-2.112 1.408c-.747.363-1.515.63-2.304.8a9.468 9.468 0 01-2.304.288zm9.694-.32V16.008h4.864l.16 3.456-1.024.384a5.114 5.114 0 011.248-2.08 7.055 7.055 0 012.208-1.536 6.475 6.475 0 012.688-.576c1.28 0 2.357.267 3.232.8.874.512 1.536 1.29 1.984 2.336.448 1.024.672 2.283.672 3.776V33h-5.152V22.984c0-.683-.096-1.248-.288-1.696a1.947 1.947 0 00-.896-.992c-.384-.235-.864-.341-1.44-.32a3.42 3.42 0 00-1.248.224 2.49 2.49 0 00-.992.608 3.065 3.065 0 00-.672.896c-.15.341-.224.715-.224 1.12V33h-5.12zm19.64 0V16.008h5.12V33h-5.12zm2.56-20.352c-.96 0-1.717-.224-2.272-.672-.533-.47-.8-1.13-.8-1.984 0-.768.278-1.397.832-1.888.555-.49 1.302-.736 2.24-.736.96 0 1.707.235 2.24.704.534.448.8 1.088.8 1.92 0 .79-.277 1.43-.832 1.92-.533.49-1.269.736-2.208.736zM134.965 33V11.72h5.12V33h-5.12zm-3.008-12.512v-4.48h11.424v4.48h-11.424zm15.534 19.872l3.872-9.12.064 2.624-8.192-17.856h5.792l3.584 8.544c.192.427.373.885.544 1.376.171.49.299.96.384 1.408l-.704.416c.128-.32.267-.715.416-1.184l.544-1.568 3.136-8.992h5.824L155.523 33l-2.944 7.36h-5.088z" fill="#202020"/><path d="M64.35 54l3.794-9.8h1.54L73.45 54h-1.61l-2.24-5.908a8.343 8.343 0 01-.168-.476 26.369 26.369 0 00-.266-.84l-.28-.84c-.084-.261-.14-.43-.168-.504l.322-.014a109 109 0 00-.21.602c-.075.243-.159.5-.252.77a25.11 25.11 0 01-.462 1.358L65.89 54h-1.54zm1.68-2.436l.56-1.456h4.452l.644 1.456H66.03zm11.22 2.576c-.523 0-.98-.121-1.372-.364a2.457 2.457 0 01-.896-1.022c-.205-.439-.308-.961-.308-1.568V46.65h1.442v4.144c0 .43.065.803.196 1.12.14.308.336.546.588.714.261.168.574.252.938.252.27 0 .518-.042.742-.126.224-.093.415-.22.574-.378.168-.159.299-.35.392-.574.093-.224.14-.467.14-.728V46.65h1.442V54h-1.442v-1.54l.252-.168a2.41 2.41 0 01-.574.938 2.97 2.97 0 01-.938.672 2.91 2.91 0 01-1.176.238zm8.967 0a3.381 3.381 0 01-1.806-.49 3.643 3.643 0 01-1.246-1.358c-.308-.579-.462-1.237-.462-1.974 0-.737.149-1.39.448-1.96A3.507 3.507 0 0184.397 47a3.216 3.216 0 011.778-.504c.364 0 .714.06 1.05.182.345.112.653.27.924.476.27.196.48.415.63.658.158.233.238.471.238.714l-.42.028V43.64h1.442V54h-1.442v-1.75h.28c0 .224-.075.448-.224.672a2.64 2.64 0 01-.602.602 2.966 2.966 0 01-.854.448 2.924 2.924 0 01-.98.168zm.196-1.246c.438 0 .826-.112 1.162-.336a2.26 2.26 0 00.784-.91c.196-.392.294-.835.294-1.33 0-.495-.098-.933-.294-1.316a2.24 2.24 0 00-.784-.924 2.046 2.046 0 00-1.162-.336c-.44 0-.826.112-1.162.336a2.342 2.342 0 00-.798.924c-.187.383-.28.821-.28 1.316 0 .495.093.938.28 1.33.196.383.462.686.798.91.336.224.723.336 1.162.336zM92.262 54v-7.35h1.442V54h-1.442zm.7-8.974c-.308 0-.546-.08-.714-.238-.168-.159-.252-.383-.252-.672 0-.27.084-.49.252-.658.177-.168.415-.252.714-.252.308 0 .546.08.714.238.168.159.252.383.252.672 0 .27-.089.49-.266.658-.168.168-.402.252-.7.252zm6.262 9.114c-.719 0-1.363-.163-1.932-.49a3.712 3.712 0 01-1.33-1.358c-.327-.579-.49-1.237-.49-1.974 0-.737.163-1.39.49-1.96A3.575 3.575 0 0197.292 47c.57-.336 1.213-.504 1.932-.504.71 0 1.344.168 1.904.504a3.55 3.55 0 011.344 1.358c.327.57.49 1.223.49 1.96 0 .737-.163 1.395-.49 1.974a3.683 3.683 0 01-1.344 1.358c-.56.327-1.195.49-1.904.49zm0-1.316c.439 0 .831-.107 1.176-.322.345-.224.616-.523.812-.896a2.67 2.67 0 00.28-1.288c.009-.485-.084-.915-.28-1.288a2.225 2.225 0 00-.812-.896 2.18 2.18 0 00-1.176-.322 2.223 2.223 0 00-2.002 1.232 2.58 2.58 0 00-.28 1.274c-.01.476.084.905.28 1.288.196.373.467.672.812.896a2.25 2.25 0 001.19.322zM108.821 54v-9.8h4.172c.56 0 1.074.14 1.54.42.476.27.854.644 1.134 1.12.28.467.42.994.42 1.582a2.79 2.79 0 01-.42 1.484c-.28.457-.653.826-1.12 1.106-.466.27-.984.406-1.554.406h-2.66V54h-1.512zm5.824 0l-2.492-4.424 1.554-.35 2.772 4.788-1.834-.014zm-4.312-5.138h2.8c.271 0 .514-.065.728-.196.215-.14.383-.327.504-.56a1.75 1.75 0 00.182-.798c0-.327-.079-.611-.238-.854a1.514 1.514 0 00-.644-.588c-.27-.14-.578-.21-.924-.21h-2.408v3.206zm11.015 5.278c-.756 0-1.428-.159-2.016-.476a3.678 3.678 0 01-1.372-1.33c-.327-.56-.49-1.204-.49-1.932 0-.579.093-1.106.28-1.582.187-.476.443-.887.77-1.232a3.381 3.381 0 011.19-.812 3.867 3.867 0 011.512-.294c.476 0 .919.093 1.33.28.411.177.765.425 1.064.742.308.317.541.695.7 1.134.168.43.247.9.238 1.414l-.014.616h-6.006l-.322-1.148h5.082l-.21.238v-.336a1.625 1.625 0 00-.308-.826 1.897 1.897 0 00-.672-.574 1.893 1.893 0 00-.882-.21c-.504 0-.929.098-1.274.294a1.806 1.806 0 00-.784.84c-.177.364-.266.817-.266 1.358 0 .513.107.961.322 1.344.215.373.518.663.91.868.392.205.845.308 1.358.308.364 0 .7-.06 1.008-.182.317-.121.658-.34 1.022-.658l.728 1.022c-.224.224-.499.42-.826.588a5.18 5.18 0 01-1.022.406 4.12 4.12 0 01-1.05.14zm4.773-.14v-7.35h1.442v1.512l-.252.168c.094-.327.276-.625.546-.896.271-.28.593-.504.966-.672a2.651 2.651 0 011.148-.266c.56 0 1.027.112 1.4.336.374.215.654.546.84.994.187.448.28 1.013.28 1.694V54h-1.442v-4.382c0-.42-.056-.765-.168-1.036-.112-.28-.284-.48-.518-.602-.233-.13-.522-.187-.868-.168-.28 0-.536.047-.77.14a1.866 1.866 0 00-.616.364 1.881 1.881 0 00-.406.56 1.61 1.61 0 00-.14.672V54h-1.442zm9.236 0v-9.226h1.442V54h-1.442zm-1.526-5.95v-1.4h4.676v1.4h-4.676zm8.749 6.09a2.94 2.94 0 01-1.666-.504 3.636 3.636 0 01-1.19-1.372c-.299-.579-.448-1.232-.448-1.96 0-.737.149-1.39.448-1.96a3.548 3.548 0 011.232-1.358 3.235 3.235 0 011.75-.49c.383 0 .733.056 1.05.168.317.112.593.27.826.476.243.196.439.425.588.686.159.261.257.541.294.84l-.322-.112V46.65h1.456V54h-1.456v-1.75l.336-.098c-.056.252-.173.5-.35.742a2.654 2.654 0 01-.658.63 3.398 3.398 0 01-.882.448 3.004 3.004 0 01-1.008.168zm.378-1.33a2.11 2.11 0 001.162-.322c.336-.215.597-.509.784-.882.196-.383.294-.817.294-1.302a2.7 2.7 0 00-.294-1.274 2.182 2.182 0 00-.784-.882 2.11 2.11 0 00-1.162-.322c-.429 0-.812.107-1.148.322a2.32 2.32 0 00-.784.882c-.187.373-.28.798-.28 1.274 0 .485.093.92.28 1.302.196.373.457.667.784.882.336.215.719.322 1.148.322zM148.64 54V43.64h1.442V54h-1.442zm5.935.14a4.145 4.145 0 01-1.666-.322 3.104 3.104 0 01-1.232-.952l.98-.84c.28.327.584.565.91.714.336.14.714.21 1.134.21.168 0 .322-.019.462-.056.15-.047.276-.112.378-.196a.834.834 0 00.252-.294.924.924 0 00.084-.392.73.73 0 00-.266-.588 2.023 2.023 0 00-.448-.21 5.707 5.707 0 00-.77-.252c-.541-.14-.984-.299-1.33-.476-.345-.177-.611-.378-.798-.602a1.818 1.818 0 01-.308-.574 2.406 2.406 0 01-.098-.7c0-.308.066-.588.196-.84.14-.261.327-.485.56-.672a2.6 2.6 0 01.84-.448 3.436 3.436 0 011.036-.154 3.8 3.8 0 011.022.14c.346.093.663.229.952.406.29.177.532.387.728.63l-.826.91a3.112 3.112 0 00-.588-.462 2.672 2.672 0 00-.63-.322 1.798 1.798 0 00-.588-.112c-.196 0-.373.019-.532.056a1.241 1.241 0 00-.406.168.771.771 0 00-.238.28.834.834 0 00-.084.378c.01.121.038.238.084.35a.879.879 0 00.224.266c.103.075.257.154.462.238.206.084.467.163.784.238.467.121.85.257 1.148.406.308.14.551.303.728.49.187.177.318.383.392.616.075.233.112.495.112.784 0 .42-.121.798-.364 1.134-.233.327-.55.583-.952.77-.401.187-.849.28-1.344.28z" fill="#515151"/><g clip-path="url(#clip0_802_4)" fill="#DE0A89"><path d="M44.99 14.94c.013-.584.016-1.174-.155-1.738-.292-1.057-1.271-1.867-2.345-2.088-1.593-.41-3.495.581-3.861 2.207-.067.3-.101.606-.1.912v7.1a1.43 1.43 0 01-.455 1.153c-.456.38-1.147.395-1.678.171-.472-.19-.73-.683-.776-1.162-.093-1.917.1-3.85-.107-5.76-.257-1.038-1.148-1.862-2.174-2.164-1.66-.518-3.739.438-4.116 2.177-.063.278-.1.562-.113.846-.01 1.58.013 3.16-.008 4.734.011.356-.232.639-.424.919-.69.417-1.603.556-2.338.167-.497-.26-.648-.852-.632-1.367 0-5.661-.009-11.321 0-16.985 0-.607.03-1.218-.067-1.82A3.104 3.104 0 0024.836.93a3.167 3.167 0 00-1.345-.775A3.419 3.419 0 0021.477.15c-.656.2-1.235.594-1.658 1.128a3.032 3.032 0 00-.602 1.954v14.896c-.018 3.294.037 6.59-.032 9.884-.141.346-.455.582-.725.836l-.059-.01c-.442.093-.924.166-1.35-.03a1.245 1.245 0 01-.554-.488 1.219 1.219 0 01-.177-.71c-.007-3.528 0-7.057 0-10.58-.008-.696.054-1.41-.122-2.088-.283-1.011-1.164-1.785-2.176-2.066-1.662-.521-3.744.498-4.067 2.245v-.157c-.13.68-.085 1.375-.088 2.064v10.877a.985.985 0 01-.123.543 1.004 1.004 0 01-.4.393c-.508.313-1.13.235-1.702.243-.423-.182-.858-.392-1.089-.817H6.51c-.095-1.56 0-3.125-.051-4.687a2.911 2.911 0 00-.824-1.892 3.404 3.404 0 00-1.638-.905 3.437 3.437 0 00-1.876.095 3.1 3.1 0 00-1.226.745c-.344.34-.601.755-.751 1.212-.195.595-.132 1.227-.142 1.842V36.37c.016.278-.018.582.142.826.3 1.084 1.354 1.862 2.447 2.077 1.667.366 3.571-.766 3.828-2.472.134-1.415-.03-2.846.08-4.262.455-1.498 3.126-1.335 3.358.221.021 3.85 0 7.7.01 11.555a2.916 2.916 0 001.225 2.324 3.43 3.43 0 003.574.264 2.94 2.94 0 00.98-.771c.266-.324.459-.7.564-1.104.07-.28.11-.565.119-.852V32.742c-.01-.266.062-.528.208-.752.146-.224.358-.4.607-.501a1.64 1.64 0 011.162.004c.373.144.68.418.86.771.085.716.053 1.439.057 2.158V56.14c0 .604-.058 1.235.202 1.803.613 1.97 3.417 2.684 5.02 1.44.388-.243.709-.575.936-.969a2.73 2.73 0 00.366-1.287c0-2.974-.022-5.95.01-8.924-.066-3.153.038-6.308-.023-9.466v-12.65c.215-.278.324-.636.639-.822.914-.599 2.573-.293 2.73.928.044 2.737 0 5.477.017 8.214.013.284.052.567.117.844.276 1.04 1.19 1.865 2.235 2.132 1.554.47 3.489-.385 3.966-1.956.246-.587.174-1.232.182-1.85v-7.1c0-.344.108-.672.19-1.002.456-.41 1.083-.677 1.704-.51.291.053.553.207.738.434.186.227.283.511.274.803 0 6.544-.003 13.087-.007 19.629 0 .307.041.612.121.909.264 1.084 1.246 1.906 2.33 2.15 1.66.437 3.73-.65 3.927-2.413l.009.207c.12-.602.092-1.216.09-1.825 0-9.97-.003-19.944-.006-29.92zm9.008 12.146a3.105 3.105 0 00-.497-1.795c-.747-1.107-2.265-1.563-3.508-1.128-.74.224-1.326.778-1.717 1.435-.147.44-.295.89-.274 1.362.01 1.754-.008 3.508 0 5.261 0 1.181.86 2.243 1.964 2.597 1.517.585 3.473-.29 3.903-1.904.09-.355.133-.721.13-1.088-.007-1.58 0-3.16 0-4.74z"/></g><defs><clipPath id="clip0_802_4"><path fill="#fff" d="M0 0h54v60H0z"/></clipPath></defs></svg>