<svg width="27" height="19" fill="none" xmlns="http://www.w3.org/2000/svg"><path d="M18.545 9.538l6.92-6.056v12.042l-6.92-5.986zm-8.917 1.025l2.43 2.125a2.18 2.18 0 001.422.524h.02-.002.016c.545 0 1.042-.199 1.428-.527l-.004.002 2.43-2.125 7.388 6.39H2.244l7.384-6.389zM2.234 2.047H24.77l-10.824 9.468a.685.685 0 01-.428.15h-.03a.684.684 0 01-.429-.15h.002L2.233 2.047zM1.536 3.48l6.919 6.056-6.92 5.983V3.48zm24.3-2.766A2.06 2.06 0 0024.914.5H2.091c-.326 0-.647.076-.939.223l.012-.005a2.09 2.09 0 00-.849.774A2.114 2.114 0 000 2.602v13.793c0 .558.221 1.093.613 1.488.392.394.923.616 1.477.617h22.82c.554 0 1.085-.223 1.477-.617.392-.395.612-.93.613-1.488V2.602A2.1 2.1 0 0025.842.721L25.83.715h.007z" fill="#fff"/></svg>