<svg width="51" height="60" fill="none" xmlns="http://www.w3.org/2000/svg"><path d="M28.155 9C29.332 7.65 30 5.952 30 4.17V0H13v4.17c0 1.782.668 3.48 1.845 4.83h13.31zm-1.051 40.416c0-7.423 6.082-13.462 13.557-13.462.114 0 .226.001.339.004C38.507 27.192 33.12 18.425 27.29 13H14.263C8.357 18.5 2.898 27.427.449 36.31-1.729 44.213 4.294 52 12.544 52h14.811c-.164-.837-.251-1.7-.251-2.584zm-4.279-6.91H19.33v-2.33c-2.512-.362-4.447-2.513-4.447-5.105h3.496c0 .93.763 1.688 1.7 1.688h1.963c.972 0 1.763-.785 1.763-1.75s-.791-1.75-1.763-1.75h-1.928c-2.9 0-5.259-2.342-5.259-5.221 0-2.615 1.946-4.787 4.475-5.164v-2.333h3.496v2.34c2.51.396 4.433 2.558 4.433 5.159h-3.496a1.76 1.76 0 00-1.765-1.752h-1.884c-.972 0-1.762.785-1.762 1.75 0 .964.79 1.75 1.762 1.75h1.928c2.9 0 5.26 2.342 5.26 5.221 0 2.615-1.946 4.786-4.476 5.163v2.334z" fill="#490083"/><path d="M31 50c0 5.514 4.486 10 10 10s10-4.486 10-10-4.486-10-10-10-10 4.486-10 10zm15.799-3.341L43.457 50l3.342 3.341L44.34 55.8 41 52.458l-3.341 3.34-2.458-2.457 3.342-3.34-3.342-3.342 2.458-2.457 3.34 3.34 3.342-3.34 2.458 2.457z" fill="#490083"/></svg>