<svg width="50" height="50" fill="none" xmlns="http://www.w3.org/2000/svg"><g clip-path="url(#clip0_801_3147)" fill="#DE0A89"><path d="M29.338 0H5.662C2.532 0 0 2.577 0 5.762v32.476C0 41.423 2.532 44 5.662 44h16.78c-1.73-2.787-2.883-6.076-2.883-9.848V29.04a1.963 1.963 0 01-1.03.293H8.235c-1.132 0-2.059-.942-2.059-2.095 0-1.152.927-2.095 2.06-2.095h10.293c.392 0 .742.105 1.05.293.083-1.78.906-3.415 2.203-4.484H8.235c-1.132 0-2.059-.943-2.059-2.095 0-1.152.927-2.095 2.06-2.095h18.529c.864 0 1.606.545 1.914 1.32l5.868-2.033a1.64 1.64 0 01.453-.125V5.762C35 2.577 32.468 0 29.338 0zM16.471 12.571H8.235c-1.132 0-2.059-.942-2.059-2.095 0-1.152.927-2.095 2.06-2.095h8.235c1.132 0 2.058.943 2.058 2.095 0 1.153-.926 2.095-2.058 2.095z"/><path d="M48.59 23.805L37.67 20.11a2.097 2.097 0 00-1.34 0l-10.92 3.695a2.072 2.072 0 00-1.41 1.96v8.313c0 10.483 11.687 15.547 12.184 15.759a2.12 2.12 0 001.632-.003C38.313 49.624 50 44.561 50 34.078v-8.312c0-.888-.566-1.674-1.41-1.96zm-4.206 7.782l-6.24 8.275a2.074 2.074 0 01-1.663.828c-.551 0-1.08-.215-1.47-.606l-4.16-4.138a2.059 2.059 0 010-2.926 2.085 2.085 0 012.94 0l2.466 2.452 4.8-6.368a2.085 2.085 0 012.91-.414 2.059 2.059 0 01.417 2.896z"/></g><defs><clipPath id="clip0_801_3147"><path fill="#fff" d="M0 0h50v50H0z"/></clipPath></defs></svg>