<svg width="50" height="56" fill="none" xmlns="http://www.w3.org/2000/svg"><path d="M32.113 0H4.887C2.192 0 0 2.208 0 4.922v46.156C0 53.792 2.192 56 4.887 56h27.226C34.808 56 37 53.792 37 51.078V4.922C37 2.208 34.808 0 32.113 0zM18.5 7.934c2.97 0 5.378 2.426 5.378 5.417 0 2.992-2.408 5.417-5.378 5.417s-5.378-2.425-5.378-5.417c0-2.991 2.408-5.417 5.378-5.417zm0 40.791c-7.081 0-12.843-5.802-12.843-12.934S11.42 22.856 18.5 22.856s12.843 5.802 12.843 12.935c0 7.132-5.762 12.934-12.843 12.934z" fill="#490083"/><path d="M18.5 30a5.506 5.506 0 00-5.5 5.5c0 3.033 2.467 5.5 5.5 5.5s5.5-2.467 5.5-5.5-2.467-5.5-5.5-5.5zm24.523-11.653a1.185 1.185 0 00-1.676 1.676l3.63 3.63a1.18 1.18 0 001.676 0 1.185 1.185 0 000-1.676l-3.63-3.63zM42.185 12c.303 0 .606-.116.838-.347l3.63-3.63a1.185 1.185 0 10-1.676-1.676l-3.63 3.63A1.185 1.185 0 0042.185 12zm5.765 2h-4.9c-.58 0-1.05.672-1.05 1.5s.47 1.5 1.05 1.5h4.9c.58 0 1.05-.672 1.05-1.5s-.47-1.5-1.05-1.5z" fill="#490083"/></svg>