<svg width="46" height="52" fill="none" xmlns="http://www.w3.org/2000/svg"><path d="M19.5 9C13.711 9 9 13.71 9 19.5S13.711 30 19.5 30C25.29 30 30 25.29 30 19.5S25.29 9 19.5 9zm7.06 8.56l-7.5 7.5a1.495 1.495 0 01-2.12 0l-4.5-4.5a1.5 1.5 0 112.12-2.12L18 21.879l6.44-6.44a1.5 1.5 0 112.12 2.122z" fill="#DE0A89"/><path d="M45.511 30.988a4.524 4.524 0 00-.436-4.787l-5.218-6.915C39.54 6.996 28.127-2.146 15.658.44 8.091 2.008 1.97 8.12.424 15.65c-.805 3.925-.46 7.908 1 11.519C4.59 35.023 6.13 42.289 6.13 48.96v1.516c0 .842.686 1.523 1.533 1.523h18.4c.847 0 1.533-.681 1.533-1.523v-4.774h7.666c2.537 0 4.6-2.05 4.6-4.57v-7.619h1.534a4.58 4.58 0 004.114-2.526zm-25.58 2.526c-7.61 0-13.8-6.15-13.8-13.711 0-7.562 6.19-13.713 13.8-13.713 7.609 0 13.799 6.151 13.799 13.713 0 7.56-6.19 13.711-13.8 13.711z" fill="#DE0A89"/></svg>