<svg width="96" height="19" fill="none" xmlns="http://www.w3.org/2000/svg"><path d="M0 .505h17.99v17.99H0V.505zm19.49 0h17.99v17.99H19.49V.505zm19.49 0h17.99v17.99H38.98V.505zm19.489 0h17.99v17.99H58.47V.505zm19.49 0h17.99v17.99h-17.99V.505z" fill="#EC6C23"/><path d="M8.995 12.63l2.736-.694 1.143 3.523-3.88-2.83zm6.296-4.554h-4.816L8.995 3.54l-1.48 4.535H2.697l3.898 2.81-1.48 4.536 3.898-2.811 2.398-1.724 3.88-2.811zm13.194 4.553l2.736-.693 1.143 3.523-3.88-2.83zm6.296-4.553h-4.816l-1.48-4.535-1.481 4.535h-4.816l3.898 2.81-1.48 4.536 3.897-2.811 2.399-1.724 3.88-2.811zm13.193 4.553l2.736-.693 1.143 3.523-3.879-2.83zm6.297-4.553h-4.816l-1.48-4.535-1.481 4.535h-4.817l3.898 2.81-1.48 4.536 3.898-2.811 2.398-1.724 3.88-2.811zm13.193 4.553l2.736-.693 1.143 3.523-3.88-2.83zm6.296-4.553h-4.816l-1.48-4.535-1.48 4.535h-4.817l3.898 2.81-1.48 4.536 3.897-2.811 2.4-1.724 3.878-2.811zm13.193 4.553l2.736-.693 1.144 3.523-3.88-2.83zm6.297-4.553h-4.816l-1.48-4.535-1.481 4.535h-4.816l3.898 2.81-1.48 4.536 3.897-2.811 2.399-1.724 3.879-2.811z" fill="#fff"/></svg>