<svg width="193" height="193" fill="none" xmlns="http://www.w3.org/2000/svg"><circle cx="96.5" cy="96.5" r="96.5" fill="#fff"/><path d="M72.753 184.988a1.317 1.317 0 01-.257-.04l-.141-.041C32.62 173.932 5 137.608 5 96.527a92.197 92.197 0 017.086-35.388 92.016 92.016 0 0120.12-29.93 1.187 1.187 0 011.953 1.305 1.19 1.19 0 01-.288.384 89.604 89.604 0 00-19.602 29.156 89.78 89.78 0 00-6.9 34.472c0 40.014 26.908 75.398 65.436 86.055a1.33 1.33 0 01.973 1.496 1.11 1.11 0 01-1.025.911zm87.317-23.023a1.15 1.15 0 01-.84-.354 1.177 1.177 0 01-.347-.839 1.178 1.178 0 01.347-.839 89.648 89.648 0 0019.518-29.114 89.83 89.83 0 006.879-34.393c0-40.014-26.908-75.398-65.437-86.06a1.258 1.258 0 01-.9-1.479 1.1 1.1 0 01.933-.876c.15-.021.304-.011.45.03l-.314 1.145.447-1.11c39.566 10.94 67.19 47.272 67.19 88.35a92.171 92.171 0 01-7.06 35.306 92.012 92.012 0 01-20.037 29.887 1.204 1.204 0 01-.829.346z" fill="#515151"/><g clip-path="url(#clip0_812_25)" fill="#490083"><path d="M74.906 97c0 11.625 9.47 21.094 21.094 21.094 11.625 0 21.094-9.469 21.094-21.094 0-11.625-9.469-21.094-21.094-21.094-11.625 0-21.094 9.47-21.094 21.094zm32.109-3.047L93.656 107.36l-8.672-8.72 3.282-3.28 5.39 5.343 10.079-10.031 3.28 3.281z"/><path d="M96 137c21.984 0 40-18.016 40-40h-9.375c0 16.781-13.844 30.469-30.625 30.469S65.531 113.781 65.531 97 79.22 66.531 96 66.531c6.844 0 13.172 2.25 18.234 6.094l-3.562 3.563 16.547 3.28-3.281-16.546-3 3C114.094 60.438 105.422 57 96 57c-21.984 0-40 18.016-40 40s18.016 40 40 40z"/></g><defs><clipPath id="clip0_812_25"><path fill="#fff" transform="translate(56 57)" d="M0 0h80v80H0z"/></clipPath></defs></svg>