<svg width="193" height="193" fill="none" xmlns="http://www.w3.org/2000/svg"><circle cx="96.5" cy="96.5" r="96.5" fill="#fff"/><g clip-path="url(#clip0_812_23)"><path d="M72.753 185a1.317 1.317 0 01-.257-.04l-.141-.041C32.62 173.944 5 137.62 5 96.539a92.196 92.196 0 017.086-35.388 92.015 92.015 0 0120.12-29.93 1.184 1.184 0 011.986.363 1.192 1.192 0 01-.321 1.326 89.603 89.603 0 00-19.602 29.156 89.78 89.78 0 00-6.9 34.472c0 40.014 26.908 75.398 65.436 86.055a1.33 1.33 0 01.973 1.496 1.105 1.105 0 01-1.026.911zm87.317-23.023a1.15 1.15 0 01-.84-.354 1.187 1.187 0 010-1.678 89.648 89.648 0 0019.518-29.114 89.83 89.83 0 006.879-34.393c0-40.014-26.908-75.399-65.437-86.06a1.258 1.258 0 01-.9-1.479 1.1 1.1 0 01.933-.876c.15-.021.304-.011.45.03l-.314 1.144.447-1.108c39.566 10.938 67.19 47.27 67.19 88.349a92.175 92.175 0 01-7.06 35.306 92.012 92.012 0 01-20.037 29.887 1.204 1.204 0 01-.829.346z" fill="#515151"/></g><g clip-path="url(#clip1_812_23)" fill="#490083"><path d="M97 75a9 9 0 009-9 9 9 0 10-9 9zM84.928 93h25.144c2.166 0 3.928-1.844 3.928-4.111V87.75c0-2.97-1.516-5.684-3.96-7.082C107.112 78.995 102.561 77 97.5 77c-5.061 0-9.612 1.995-12.54 3.668C82.516 82.066 81 84.78 81 87.75v1.139C81 91.156 82.762 93 84.928 93zM73 119a9 9 0 009-9 9 9 0 00-9-9 9 9 0 00-9 9 9 9 0 009 9zm13.04 5.668C83.112 122.995 78.56 121 73.5 121c-5.061 0-9.612 1.995-12.54 3.668-2.444 1.398-3.96 4.111-3.96 7.082v1.139c0 2.267 1.762 4.111 3.928 4.111h25.144c2.166 0 3.928-1.844 3.928-4.111v-1.139c0-2.971-1.516-5.684-3.96-7.082zM121 119a9 9 0 009-9 9 9 0 00-9-9 9 9 0 00-9 9 9 9 0 009 9zm12.04 5.668c-2.928-1.673-7.479-3.668-12.54-3.668-5.061 0-9.612 1.995-12.54 3.668-2.444 1.398-3.96 4.112-3.96 7.082v1.139c0 2.267 1.762 4.111 3.928 4.111h25.144c2.166 0 3.928-1.844 3.928-4.111v-1.139c0-2.971-1.517-5.684-3.96-7.082zM106.165 119a1.835 1.835 0 001.147-3.266l-8.479-6.783V98.833a1.832 1.832 0 10-3.666 0v10.119l-8.48 6.782a1.836 1.836 0 00-.286 2.578 1.838 1.838 0 002.578.287L97 112.182l8.021 6.417c.338.27.743.401 1.144.401z"/></g><defs><clipPath id="clip0_812_23"><path fill="#fff" transform="translate(5 8)" d="M0 0h183v177H0z"/></clipPath><clipPath id="clip1_812_23"><path fill="#fff" transform="translate(57 57)" d="M0 0h80v80H0z"/></clipPath></defs></svg>