<svg width="193" height="193" fill="none" xmlns="http://www.w3.org/2000/svg"><circle cx="96.5" cy="96.5" r="96.5" fill="#fff"/><path d="M72.753 184.988a1.317 1.317 0 01-.257-.04l-.141-.041C32.62 173.932 5 137.608 5 96.527a92.197 92.197 0 017.086-35.388 92.016 92.016 0 0120.12-29.93 1.187 1.187 0 011.953 1.305 1.19 1.19 0 01-.288.384 89.604 89.604 0 00-19.602 29.156 89.78 89.78 0 00-6.9 34.472c0 40.014 26.908 75.398 65.436 86.055a1.33 1.33 0 01.973 1.496 1.11 1.11 0 01-1.025.911zm87.317-23.023a1.15 1.15 0 01-.84-.354 1.177 1.177 0 01-.347-.839 1.178 1.178 0 01.347-.839 89.648 89.648 0 0019.518-29.114 89.83 89.83 0 006.879-34.393c0-40.014-26.908-75.398-65.437-86.06a1.258 1.258 0 01-.9-1.479 1.1 1.1 0 01.933-.876c.15-.021.304-.011.45.03l-.314 1.145.447-1.11c39.566 10.94 67.19 47.272 67.19 88.35a92.171 92.171 0 01-7.06 35.306 92.012 92.012 0 01-20.037 29.887 1.204 1.204 0 01-.829.346z" fill="#515151"/><g clip-path="url(#clip0_812_24)" fill="#490083"><path d="M69.89 121.062c-3.839 3.505-3.984 9.555-.317 13.26a9.002 9.002 0 0013.138-.347l17.042-19.11-10.632-11.407-19.231 17.604zm8.784 9.275c-1.45 1.453-3.812 1.466-5.263.013a3.795 3.795 0 010-5.33 3.687 3.687 0 015.263.013 3.8 3.8 0 010 5.304zm36.129-32.357a1.714 1.714 0 011.728-.492c14.738 4.015 23.354-8.656 20.801-19.211-.241-.996-1.497-1.318-2.214-.593l-8.193 8.277a1.69 1.69 0 01-2.4 0l-7.031-7.117a1.735 1.735 0 010-2.425l8.378-8.464c.704-.71.397-1.896-.544-2.221-9.247-3.197-23.613 5.413-19.402 21.04.172.64 0 1.305-.488 1.745l-3.06 2.812 9.932 9.448 2.493-2.798zM90.045 83.242l-8.112 8.196a3.102 3.102 0 01-.211.2l38.318 41.071a7.498 7.498 0 0010.816.16c2.995-3.038 2.929-7.982-.171-10.927l-40.64-38.7zM69.896 99.834l3.35-3.386a2.05 2.05 0 000-2.876l-.93-.94c-1.04-1.05-1.24-2.765-.308-3.916a2.795 2.795 0 014.174-.218l1.043 1.054a1.999 1.999 0 002.848 0l10.196-10.301a3.088 3.088 0 000-4.336l-2.868-2.898c-1.577-1.594-1.594-3.539-.412-4.734 3.452-3.491 7.707-6.534 12.606-9.218.498-.272.324-1.034-.242-1.052-5.06-.157-9.704 1.109-14.03 3.459-4.783 2.598-7.471 5.745-18.112 15.256a2.055 2.055 0 00-.096 2.967l.65.657c1.055 1.065 1.257 2.802.312 3.968a2.832 2.832 0 01-4.229.22l-.857-.865a1.999 1.999 0 00-2.848 0l-3.616 3.653a1.832 1.832 0 000 2.572L67.35 99.834a1.79 1.79 0 002.547 0z"/></g><defs><clipPath id="clip0_812_24"><path fill="#fff" transform="translate(56 57)" d="M0 0h81.778v80H0z"/></clipPath></defs></svg>