<svg width="158" height="158" fill="none" xmlns="http://www.w3.org/2000/svg"><circle cx="79" cy="79" r="79" fill="#fff"/><circle cx="79" cy="79" r="69" fill="#F5F5F5"/><g clip-path="url(#clip0_812_15)" fill="#fff"><path d="M106.319 56.409c.019-.875.023-1.76-.236-2.606-.444-1.585-1.93-2.8-3.56-3.133-2.42-.614-5.309.873-5.864 3.312a6.11 6.11 0 00-.153 1.368V66a2.12 2.12 0 01-.146.94c-.12.299-.305.568-.544.789-.693.57-1.742.593-2.549.257-.716-.286-1.108-1.026-1.177-1.744-.142-2.875.152-5.776-.163-8.64-.39-1.557-1.744-2.793-3.3-3.246-2.521-.777-5.678.658-6.251 3.266a7.035 7.035 0 00-.172 1.27c-.015 2.37.02 4.738-.012 7.1.017.534-.352.958-.644 1.378-1.049.626-2.434.835-3.55.25-.755-.39-.984-1.278-.96-2.05 0-8.491-.013-16.982 0-25.477 0-.91.045-1.827-.101-2.729a4.644 4.644 0 00-1.223-1.97 4.824 4.824 0 00-2.042-1.162 5.253 5.253 0 00-3.059-.008c-.996.3-1.875.89-2.517 1.69a4.51 4.51 0 00-.914 2.933V61.19c-.028 4.94.056 9.883-.05 14.826-.214.518-.69.873-1.1 1.253l-.09-.014c-.671.14-1.402.248-2.05-.046a1.884 1.884 0 01-.84-.73 1.81 1.81 0 01-.269-1.066c-.01-5.292 0-10.586 0-15.87-.013-1.045.081-2.114-.187-3.133-.429-1.516-1.767-2.677-3.303-3.1-2.524-.78-5.686.748-6.177 3.37v-.237c-.197 1.021-.129 2.063-.133 3.097v16.315c.018.284-.047.566-.187.814-.14.249-.351.453-.606.59-.773.47-1.716.353-2.585.365-.643-.273-1.304-.589-1.654-1.226h-.066c-.144-2.34 0-4.688-.077-7.03a4.342 4.342 0 00-1.25-2.839 5.185 5.185 0 00-2.489-1.356 5.28 5.28 0 00-2.848.141 4.719 4.719 0 00-1.863 1.118 4.555 4.555 0 00-1.14 1.818c-.296.892-.2 1.84-.214 2.763v17.54c.023.418-.028.874.214 1.24.455 1.626 2.057 2.793 3.717 3.115 2.531.549 5.422-1.149 5.813-3.707.203-2.123-.048-4.27.122-6.394.69-2.247 4.746-2.003 5.098.332.032 5.774 0 11.55.015 17.332.013.682.187 1.352.51 1.957a4.449 4.449 0 001.35 1.531 5.233 5.233 0 002.655.953 5.256 5.256 0 002.771-.557 4.442 4.442 0 001.489-1.158 4.32 4.32 0 00.858-1.656c.105-.419.166-.847.18-1.278v-17.15a1.917 1.917 0 01.316-1.129 1.99 1.99 0 01.921-.75 2.518 2.518 0 011.765.006 2.433 2.433 0 011.305 1.157c.13 1.073.081 2.157.088 3.236v32.577c0 .906-.088 1.852.306 2.704.931 2.955 5.189 4.026 7.623 2.159a4.2 4.2 0 001.421-1.451c.345-.59.536-1.253.557-1.932 0-4.46-.035-8.925.015-13.385-.101-4.73.058-9.462-.035-14.2V73.13c.326-.417.492-.954.97-1.234 1.388-.898 3.908-.438 4.146 1.393.066 4.105 0 8.215.025 12.32.02.427.08.85.178 1.266.419 1.56 1.806 2.798 3.394 3.2 2.359.703 5.297-.58 6.022-2.935.373-.881.264-1.848.277-2.775v-10.65c0-.516.163-1.009.287-1.504.693-.614 1.645-1.014 2.59-.764.44.08.838.31 1.12.65.282.34.43.768.415 1.204 0 9.816-.004 19.631-.01 29.444 0 .461.063.919.184 1.364.4 1.627 1.891 2.859 3.537 3.226 2.522.654 5.666-.975 5.964-3.621l.013.312c.182-.905.14-1.826.137-2.738-.001-14.956-.004-29.916-.008-44.88zm13.678 18.221a4.618 4.618 0 00-.755-2.694c-1.134-1.66-3.44-2.344-5.326-1.691-1.126.336-2.014 1.167-2.609 2.152-.222.661-.447 1.336-.415 2.042.016 2.632-.012 5.264 0 7.893 0 1.771 1.306 3.364 2.982 3.894 2.304.879 5.274-.433 5.926-2.855a6.33 6.33 0 00.199-1.632c-.012-2.37-.002-4.741-.002-7.11z"/></g><g clip-path="url(#clip1_812_15)" fill="#490083"><path d="M96.99 63.94c.013-.584.016-1.174-.155-1.738-.292-1.057-1.271-1.867-2.345-2.088-1.593-.41-3.495.581-3.861 2.208a4.05 4.05 0 00-.1.911v7.1a1.429 1.429 0 01-.455 1.153c-.456.38-1.147.395-1.678.171-.472-.19-.73-.683-.776-1.162-.093-1.917.1-3.85-.107-5.76-.257-1.038-1.148-1.862-2.174-2.164-1.66-.518-3.739.438-4.116 2.177a4.82 4.82 0 00-.113.846c-.01 1.58.013 3.16-.008 4.734.011.356-.232.639-.424.918-.69.418-1.603.557-2.338.168-.497-.26-.648-.852-.632-1.368 0-5.66-.009-11.32 0-16.984 0-.607.03-1.218-.067-1.82a3.103 3.103 0 00-.805-1.313 3.166 3.166 0 00-1.344-.775 3.419 3.419 0 00-2.015-.005c-.656.2-1.235.594-1.658 1.128a3.032 3.032 0 00-.602 1.954v14.896c-.018 3.294.037 6.59-.032 9.884-.141.346-.455.582-.725.836l-.059-.01c-.442.093-.924.166-1.35-.03a1.245 1.245 0 01-.554-.488 1.219 1.219 0 01-.177-.71c-.007-3.528 0-7.057 0-10.58-.008-.696.054-1.41-.122-2.088-.283-1.011-1.164-1.785-2.176-2.066-1.662-.521-3.744.498-4.068 2.245v-.157c-.13.68-.084 1.375-.087 2.064v10.877a.985.985 0 01-.123.543 1.004 1.004 0 01-.4.393c-.508.313-1.13.235-1.702.243-.423-.182-.858-.392-1.089-.817h-.043c-.095-1.56 0-3.125-.051-4.687a2.912 2.912 0 00-.824-1.892 3.404 3.404 0 00-1.638-.904 3.437 3.437 0 00-1.876.094 3.1 3.1 0 00-1.226.745 3.04 3.04 0 00-.751 1.212c-.195.594-.132 1.227-.142 1.842V85.37c.016.278-.018.582.142.825.3 1.085 1.354 1.863 2.447 2.078 1.667.366 3.571-.766 3.828-2.471.134-1.416-.03-2.848.08-4.263.456-1.498 3.126-1.335 3.358.221.021 3.85 0 7.7.01 11.555a2.916 2.916 0 001.225 2.324 3.43 3.43 0 003.573.265 2.94 2.94 0 00.98-.772c.267-.324.46-.7.565-1.104.07-.28.11-.565.119-.852V81.742c-.01-.266.062-.529.208-.752.146-.224.358-.4.607-.501a1.64 1.64 0 011.162.004c.373.144.68.418.86.772.085.715.053 1.438.057 2.157v21.718c0 .604-.058 1.235.202 1.803.613 1.97 3.417 2.684 5.02 1.439.388-.242.709-.574.936-.968a2.73 2.73 0 00.366-1.287c0-2.974-.022-5.95.01-8.924-.066-3.153.038-6.308-.023-9.466v-12.65c.215-.278.324-.636.639-.822.914-.599 2.573-.293 2.73.928.044 2.737 0 5.477.017 8.214.013.284.052.567.117.844.276 1.04 1.19 1.865 2.235 2.132 1.554.47 3.489-.385 3.966-1.956.246-.587.174-1.232.182-1.85v-7.1c0-.344.108-.672.19-1.002.456-.41 1.083-.677 1.704-.51.291.053.553.207.739.434.185.227.282.511.273.803 0 6.544-.003 13.087-.007 19.629 0 .307.041.612.121.909.264 1.085 1.246 1.906 2.33 2.15 1.66.437 3.73-.65 3.927-2.413l.009.207c.12-.602.091-1.216.09-1.825 0-9.97-.003-19.944-.005-29.92zm9.008 12.146a3.105 3.105 0 00-.497-1.795c-.747-1.107-2.265-1.563-3.508-1.128-.741.224-1.326.778-1.717 1.435-.147.44-.295.89-.274 1.362.01 1.754-.008 3.508 0 5.262 0 1.18.86 2.242 1.964 2.596 1.517.585 3.473-.29 3.903-1.904.089-.356.133-.721.131-1.088-.008-1.58-.002-3.16-.002-4.74z"/></g><defs><clipPath id="clip0_812_15"><path fill="#fff" transform="translate(38 34)" d="M0 0h82v90H0z"/></clipPath><clipPath id="clip1_812_15"><path fill="#fff" transform="translate(52 49)" d="M0 0h54v60H0z"/></clipPath></defs></svg>