<svg width="34" height="34" fill="none" xmlns="http://www.w3.org/2000/svg"><path d="M17 6.955a6.182 6.182 0 100 12.363 6.182 6.182 0 000-12.363zm0 9.89a3.71 3.71 0 110-7.42 3.71 3.71 0 010 7.42z" fill="#EC6C23"/><path d="M17 0a17 17 0 1017 17A17.02 17.02 0 0017 0zM9.714 29.6v-1.67a3.647 3.647 0 013.643-3.643h7.286a3.647 3.647 0 013.643 3.643v1.67a14.448 14.448 0 01-14.572 0zm16.99-1.761a6.074 6.074 0 00-6.061-5.982h-7.286a6.074 6.074 0 00-6.062 5.982 14.571 14.571 0 1119.41 0z" fill="#EC6C23"/></svg>